<svg xmlns="http://www.w3.org/2000/svg" xmlns:xlink="http://www.w3.org/1999/xlink" width="500" zoomAndPan="magnify" viewBox="0 0 375 374.999991" height="500" preserveAspectRatio="xMidYMid meet" version="1.0"><defs><g/></defs><g fill="#b61010" fill-opacity="1"><g transform="translate(105.855636, 185.069767)"><g><path d="M 23.6875 -3.6875 C 23.8125 -3.6875 23.925781 -3.609375 24.03125 -3.453125 C 24.144531 -3.304688 24.160156 -3.164062 24.078125 -3.03125 C 21.171875 -0.476562 17.960938 0.796875 14.453125 0.796875 C 11.898438 0.796875 9.722656 0.203125 7.921875 -0.984375 C 6.117188 -2.171875 4.742188 -3.734375 3.796875 -5.671875 C 2.847656 -7.609375 2.375 -9.675781 2.375 -11.875 C 2.375 -14.46875 2.988281 -16.851562 4.21875 -19.03125 C 5.445312 -21.207031 7.128906 -22.921875 9.265625 -24.171875 C 11.398438 -25.429688 13.742188 -26.0625 16.296875 -26.0625 C 18.753906 -26.0625 20.644531 -25.398438 21.96875 -24.078125 C 23.289062 -22.753906 23.953125 -20.90625 23.953125 -18.53125 C 23.953125 -17.914062 23.894531 -17.476562 23.78125 -17.21875 C 23.664062 -16.957031 23.476562 -16.828125 23.21875 -16.828125 L 6.859375 -16.75 C 6.773438 -15.789062 6.734375 -15 6.734375 -14.375 C 6.734375 -10.550781 7.632812 -7.453125 9.4375 -5.078125 C 11.238281 -2.703125 13.765625 -1.515625 17.015625 -1.515625 C 18.335938 -1.515625 19.46875 -1.691406 20.40625 -2.046875 C 21.351562 -2.398438 22.421875 -2.945312 23.609375 -3.6875 Z M 14.125 -24.734375 C 12.226562 -24.734375 10.664062 -24.109375 9.4375 -22.859375 C 8.207031 -21.609375 7.394531 -19.859375 7 -17.609375 L 19.53125 -17.875 C 19.53125 -20.113281 19.046875 -21.816406 18.078125 -22.984375 C 17.109375 -24.148438 15.789062 -24.734375 14.125 -24.734375 Z M 14.125 -24.734375 "/></g></g></g><g fill="#b61010" fill-opacity="1"><g transform="translate(130.658209, 185.069767)"><g><path d="M 27.375 -3.5625 C 27.550781 -3.5625 27.660156 -3.460938 27.703125 -3.265625 C 27.742188 -3.066406 27.679688 -2.925781 27.515625 -2.84375 L 20.71875 0.390625 C 20.539062 0.484375 20.363281 0.53125 20.1875 0.53125 C 19.613281 0.53125 19.109375 0.144531 18.671875 -0.625 C 18.234375 -1.394531 17.945312 -2.441406 17.8125 -3.765625 L 14.375 -1.515625 C 13.28125 -0.816406 12.3125 -0.3125 11.46875 0 C 10.632812 0.3125 9.757812 0.46875 8.84375 0.46875 C 7.21875 0.46875 5.953125 0.0390625 5.046875 -0.8125 C 4.140625 -1.675781 3.6875 -2.769531 3.6875 -4.09375 C 3.6875 -5.40625 4.210938 -6.546875 5.265625 -7.515625 C 6.328125 -8.484375 8.066406 -9.410156 10.484375 -10.296875 L 17.75 -13 L 17.75 -17.484375 C 17.75 -22.410156 16.363281 -24.875 13.59375 -24.875 C 12.09375 -24.875 10.957031 -24.378906 10.1875 -23.390625 C 9.414062 -22.398438 8.898438 -21.265625 8.640625 -19.984375 C 8.503906 -19.191406 8.257812 -18.539062 7.90625 -18.03125 C 7.5625 -17.53125 6.972656 -17.28125 6.140625 -17.28125 C 5.429688 -17.28125 4.890625 -17.476562 4.515625 -17.875 C 4.140625 -18.269531 3.953125 -18.734375 3.953125 -19.265625 C 3.953125 -20.316406 4.632812 -21.367188 6 -22.421875 C 7.363281 -23.484375 8.988281 -24.363281 10.875 -25.0625 C 12.769531 -25.769531 14.46875 -26.125 15.96875 -26.125 C 17.769531 -26.125 19.128906 -25.550781 20.046875 -24.40625 C 20.972656 -23.257812 21.4375 -21.609375 21.4375 -19.453125 L 21.4375 -7.125 C 21.4375 -5.582031 21.632812 -4.457031 22.03125 -3.75 C 22.425781 -3.050781 23.085938 -2.703125 24.015625 -2.703125 C 24.847656 -2.703125 25.925781 -2.988281 27.25 -3.5625 Z M 17.75 -4.6875 L 17.75 -12.078125 L 11.609375 -9.703125 C 10.378906 -9.210938 9.488281 -8.648438 8.9375 -8.015625 C 8.382812 -7.378906 8.109375 -6.617188 8.109375 -5.734375 C 8.109375 -4.679688 8.445312 -3.789062 9.125 -3.0625 C 9.8125 -2.34375 10.707031 -1.984375 11.8125 -1.984375 C 12.6875 -1.984375 13.738281 -2.332031 14.96875 -3.03125 Z M 17.75 -4.6875 "/></g></g></g><g fill="#b61010" fill-opacity="1"><g transform="translate(156.186393, 185.069767)"><g><path d="M 18.140625 -26.0625 C 19.109375 -26.0625 20.03125 -25.796875 20.90625 -25.265625 C 21.789062 -24.734375 22.234375 -24.097656 22.234375 -23.359375 C 22.234375 -22.785156 22.046875 -22.300781 21.671875 -21.90625 C 21.296875 -21.507812 20.753906 -21.3125 20.046875 -21.3125 C 19.648438 -21.3125 19.3125 -21.382812 19.03125 -21.53125 C 18.75 -21.6875 18.410156 -21.921875 18.015625 -22.234375 C 17.617188 -22.585938 17.242188 -22.847656 16.890625 -23.015625 C 16.535156 -23.191406 16.117188 -23.28125 15.640625 -23.28125 C 15.066406 -23.28125 14.457031 -23.035156 13.8125 -22.546875 C 13.175781 -22.066406 12.175781 -21.035156 10.8125 -19.453125 L 10.8125 -5.34375 C 10.8125 -4.019531 10.976562 -3.050781 11.3125 -2.4375 C 11.644531 -1.820312 12.25 -1.394531 13.125 -1.15625 C 14.007812 -0.914062 15.375 -0.796875 17.21875 -0.796875 C 17.394531 -0.796875 17.484375 -0.660156 17.484375 -0.390625 C 17.484375 -0.128906 17.394531 0 17.21875 0 C 15.8125 0 14.691406 -0.0195312 13.859375 -0.0625 L 8.96875 -0.125 L 5.34375 -0.0625 C 4.769531 -0.0195312 3.976562 0 2.96875 0 C 2.832031 0 2.765625 -0.128906 2.765625 -0.390625 C 2.765625 -0.660156 2.832031 -0.796875 2.96875 -0.796875 C 4.15625 -0.796875 5.035156 -0.914062 5.609375 -1.15625 C 6.179688 -1.394531 6.566406 -1.820312 6.765625 -2.4375 C 6.960938 -3.050781 7.0625 -4.019531 7.0625 -5.34375 L 7.0625 -18.40625 C 7.0625 -19.894531 6.882812 -20.96875 6.53125 -21.625 C 6.175781 -22.289062 5.582031 -22.625 4.75 -22.625 C 4.039062 -22.625 2.851562 -22.296875 1.1875 -21.640625 L 1.0625 -21.640625 C 0.882812 -21.640625 0.757812 -21.738281 0.6875 -21.9375 C 0.625 -22.132812 0.679688 -22.273438 0.859375 -22.359375 L 8.515625 -25.984375 L 8.90625 -26.0625 C 9.300781 -26.0625 9.71875 -25.550781 10.15625 -24.53125 C 10.59375 -23.519531 10.8125 -22.222656 10.8125 -20.640625 L 10.8125 -20.578125 C 12.625 -22.691406 14.054688 -24.132812 15.109375 -24.90625 C 16.160156 -25.675781 17.171875 -26.0625 18.140625 -26.0625 Z M 18.140625 -26.0625 "/></g></g></g><g fill="#b61010" fill-opacity="1"><g transform="translate(178.086516, 185.069767)"><g><path d="M 20.515625 -3.4375 C 20.691406 -3.4375 20.820312 -3.335938 20.90625 -3.140625 C 21 -2.941406 20.976562 -2.796875 20.84375 -2.703125 C 19.21875 -1.429688 17.753906 -0.53125 16.453125 0 C 15.160156 0.53125 13.8125 0.796875 12.40625 0.796875 C 10.550781 0.796875 9.03125 0.378906 7.84375 -0.453125 C 6.65625 -1.296875 6.0625 -2.6875 6.0625 -4.625 L 6.0625 -20.125 C 6.0625 -21.257812 5.984375 -22.066406 5.828125 -22.546875 C 5.679688 -23.035156 5.382812 -23.359375 4.9375 -23.515625 C 4.5 -23.671875 3.753906 -23.75 2.703125 -23.75 C 2.523438 -23.75 2.4375 -23.890625 2.4375 -24.171875 C 2.4375 -24.460938 2.523438 -24.609375 2.703125 -24.609375 C 4.460938 -24.648438 5.890625 -25.117188 6.984375 -26.015625 C 8.085938 -26.921875 8.726562 -28.125 8.90625 -29.625 C 8.90625 -29.75 9.082031 -29.8125 9.4375 -29.8125 C 9.738281 -29.8125 9.890625 -29.75 9.890625 -29.625 L 9.890625 -24.734375 C 12.085938 -24.773438 15.144531 -24.992188 19.0625 -25.390625 C 19.15625 -25.390625 19.253906 -25.222656 19.359375 -24.890625 C 19.472656 -24.566406 19.53125 -24.207031 19.53125 -23.8125 C 19.53125 -23.457031 19.453125 -23.09375 19.296875 -22.71875 C 19.140625 -22.351562 18.972656 -22.191406 18.796875 -22.234375 C 16.378906 -22.847656 13.410156 -23.195312 9.890625 -23.28125 L 9.890625 -6.859375 C 9.890625 -5.054688 10.335938 -3.710938 11.234375 -2.828125 C 12.140625 -1.953125 13.429688 -1.515625 15.109375 -1.515625 C 17.046875 -1.515625 18.804688 -2.128906 20.390625 -3.359375 Z M 20.515625 -3.4375 "/></g></g></g><g fill="#b61010" fill-opacity="1"><g transform="translate(198.271558, 185.069767)"><g><path d="M 31.46875 -0.796875 C 31.601562 -0.796875 31.671875 -0.660156 31.671875 -0.390625 C 31.671875 -0.128906 31.601562 0 31.46875 0 C 30.457031 0 29.644531 -0.0195312 29.03125 -0.0625 L 25.46875 -0.125 L 21.90625 -0.0625 C 21.289062 -0.0195312 20.472656 0 19.453125 0 C 19.328125 0 19.265625 -0.128906 19.265625 -0.390625 C 19.265625 -0.660156 19.328125 -0.796875 19.453125 -0.796875 C 20.640625 -0.796875 21.519531 -0.914062 22.09375 -1.15625 C 22.664062 -1.394531 23.0625 -1.832031 23.28125 -2.46875 C 23.5 -3.113281 23.609375 -4.070312 23.609375 -5.34375 L 23.609375 -15.828125 C 23.609375 -18.421875 23.113281 -20.34375 22.125 -21.59375 C 21.132812 -22.851562 19.609375 -23.484375 17.546875 -23.484375 C 16.179688 -23.484375 14.796875 -23.117188 13.390625 -22.390625 C 11.984375 -21.671875 10.707031 -20.671875 9.5625 -19.390625 L 9.5625 -5.34375 C 9.5625 -4.070312 9.671875 -3.113281 9.890625 -2.46875 C 10.109375 -1.832031 10.503906 -1.394531 11.078125 -1.15625 C 11.648438 -0.914062 12.53125 -0.796875 13.71875 -0.796875 C 13.851562 -0.796875 13.921875 -0.660156 13.921875 -0.390625 C 13.921875 -0.128906 13.851562 0 13.71875 0 C 12.707031 0 11.894531 -0.0195312 11.28125 -0.0625 L 7.71875 -0.125 L 4.15625 -0.0625 C 3.539062 -0.0195312 2.726562 0 1.71875 0 C 1.582031 0 1.515625 -0.128906 1.515625 -0.390625 C 1.515625 -0.660156 1.582031 -0.796875 1.71875 -0.796875 C 2.90625 -0.796875 3.785156 -0.914062 4.359375 -1.15625 C 4.929688 -1.394531 5.328125 -1.832031 5.546875 -2.46875 C 5.765625 -3.113281 5.875 -4.070312 5.875 -5.34375 L 5.875 -39.453125 C 5.875 -41.035156 5.71875 -42.175781 5.40625 -42.875 C 5.101562 -43.582031 4.554688 -43.9375 3.765625 -43.9375 C 3.097656 -43.9375 2.082031 -43.628906 0.71875 -43.015625 L 0.59375 -43.015625 C 0.457031 -43.015625 0.34375 -43.125 0.25 -43.34375 C 0.164062 -43.5625 0.210938 -43.691406 0.390625 -43.734375 L 8.78125 -47.828125 L 8.96875 -47.828125 C 9.144531 -47.828125 9.285156 -47.769531 9.390625 -47.65625 C 9.503906 -47.550781 9.5625 -47.429688 9.5625 -47.296875 L 9.5625 -20.515625 C 11.238281 -22.453125 12.898438 -23.867188 14.546875 -24.765625 C 16.191406 -25.671875 17.914062 -26.125 19.71875 -26.125 C 22.144531 -26.125 24.015625 -25.441406 25.328125 -24.078125 C 26.648438 -22.710938 27.3125 -20.734375 27.3125 -18.140625 L 27.3125 -5.34375 C 27.3125 -4.070312 27.421875 -3.113281 27.640625 -2.46875 C 27.859375 -1.832031 28.253906 -1.394531 28.828125 -1.15625 C 29.398438 -0.914062 30.28125 -0.796875 31.46875 -0.796875 Z M 31.46875 -0.796875 "/></g></g></g><g fill="#b61010" fill-opacity="1"><g transform="translate(229.076933, 185.069767)"><g><path d="M 2.640625 0 C 2.503906 0 2.4375 -0.128906 2.4375 -0.390625 C 2.4375 -0.660156 2.503906 -0.796875 2.640625 -0.796875 C 3.828125 -0.796875 4.707031 -0.914062 5.28125 -1.15625 C 5.851562 -1.394531 6.25 -1.832031 6.46875 -2.46875 C 6.6875 -3.113281 6.796875 -4.070312 6.796875 -5.34375 L 6.796875 -39.453125 C 6.796875 -41.035156 6.640625 -42.175781 6.328125 -42.875 C 6.023438 -43.582031 5.476562 -43.9375 4.6875 -43.9375 C 4.019531 -43.9375 3.007812 -43.628906 1.65625 -43.015625 L 1.515625 -43.015625 C 1.378906 -43.015625 1.28125 -43.125 1.21875 -43.34375 C 1.15625 -43.5625 1.1875 -43.691406 1.3125 -43.734375 L 9.765625 -47.765625 C 9.847656 -47.804688 9.957031 -47.828125 10.09375 -47.828125 C 10.175781 -47.828125 10.296875 -47.769531 10.453125 -47.65625 C 10.609375 -47.550781 10.6875 -47.429688 10.6875 -47.296875 L 10.6875 -5.34375 C 10.6875 -4.070312 10.785156 -3.125 10.984375 -2.5 C 11.179688 -1.882812 11.566406 -1.445312 12.140625 -1.1875 C 12.710938 -0.925781 13.59375 -0.796875 14.78125 -0.796875 C 14.90625 -0.796875 14.96875 -0.660156 14.96875 -0.390625 C 14.96875 -0.128906 14.90625 0 14.78125 0 C 13.8125 0 13.019531 -0.0195312 12.40625 -0.0625 L 8.703125 -0.125 L 5.140625 -0.0625 C 4.523438 -0.0195312 3.691406 0 2.640625 0 Z M 2.640625 0 "/></g></g></g><g fill="#b61010" fill-opacity="1"><g transform="translate(243.984784, 185.069767)"><g><path d="M 9.03125 -33.78125 C 8.113281 -33.78125 7.398438 -34.019531 6.890625 -34.5 C 6.390625 -34.988281 6.140625 -35.671875 6.140625 -36.546875 C 6.140625 -37.421875 6.390625 -38.097656 6.890625 -38.578125 C 7.398438 -39.066406 8.113281 -39.3125 9.03125 -39.3125 C 9.914062 -39.3125 10.597656 -39.066406 11.078125 -38.578125 C 11.566406 -38.097656 11.8125 -37.421875 11.8125 -36.546875 C 11.8125 -35.671875 11.566406 -34.988281 11.078125 -34.5 C 10.597656 -34.019531 9.914062 -33.78125 9.03125 -33.78125 Z M 3.5 0 C 3.40625 0 3.359375 -0.128906 3.359375 -0.390625 C 3.359375 -0.660156 3.40625 -0.796875 3.5 -0.796875 C 4.6875 -0.796875 5.578125 -0.914062 6.171875 -1.15625 C 6.765625 -1.394531 7.171875 -1.832031 7.390625 -2.46875 C 7.609375 -3.113281 7.71875 -4.070312 7.71875 -5.34375 L 7.71875 -17.671875 C 7.71875 -19.253906 7.550781 -20.398438 7.21875 -21.109375 C 6.894531 -21.816406 6.335938 -22.171875 5.546875 -22.171875 C 4.753906 -22.171875 3.765625 -21.859375 2.578125 -21.234375 L 2.5 -21.234375 C 2.332031 -21.234375 2.203125 -21.34375 2.109375 -21.5625 C 2.023438 -21.789062 2.046875 -21.945312 2.171875 -22.03125 L 10.75 -25.984375 L 11.015625 -26.0625 C 11.109375 -26.0625 11.21875 -26.003906 11.34375 -25.890625 C 11.476562 -25.785156 11.546875 -25.664062 11.546875 -25.53125 C 11.546875 -25.21875 11.519531 -24.335938 11.46875 -22.890625 C 11.425781 -21.441406 11.40625 -19.726562 11.40625 -17.75 L 11.40625 -5.34375 C 11.40625 -4.019531 11.515625 -3.050781 11.734375 -2.4375 C 11.960938 -1.820312 12.359375 -1.394531 12.921875 -1.15625 C 13.492188 -0.914062 14.375 -0.796875 15.5625 -0.796875 C 15.695312 -0.796875 15.765625 -0.660156 15.765625 -0.390625 C 15.765625 -0.128906 15.695312 0 15.5625 0 C 14.550781 0 13.738281 -0.0195312 13.125 -0.0625 L 9.5625 -0.125 L 6 -0.0625 C 5.382812 -0.0195312 4.550781 0 3.5 0 Z M 3.5 0 "/></g></g></g><g fill="#b61010" fill-opacity="1"><g transform="translate(259.882115, 185.069767)"><g><path d="M 16.625 -1.578125 C 19 -1.535156 20.910156 -1.414062 22.359375 -1.21875 C 23.816406 -1.019531 25.160156 -0.4375 26.390625 0.53125 C 27.617188 1.5 28.234375 3.035156 28.234375 5.140625 C 28.234375 7.515625 27.460938 9.722656 25.921875 11.765625 C 24.378906 13.816406 22.34375 15.445312 19.8125 16.65625 C 17.289062 17.863281 14.644531 18.46875 11.875 18.46875 C 8.84375 18.46875 6.457031 17.796875 4.71875 16.453125 C 2.976562 15.117188 2.109375 13.375 2.109375 11.21875 C 2.109375 7.957031 4.375 4.742188 8.90625 1.578125 C 7.238281 1.359375 5.960938 0.90625 5.078125 0.21875 C 4.203125 -0.457031 3.765625 -1.476562 3.765625 -2.84375 C 3.765625 -4.15625 4.132812 -5.328125 4.875 -6.359375 C 5.625 -7.398438 6.835938 -8.578125 8.515625 -9.890625 C 7.015625 -10.640625 5.847656 -11.671875 5.015625 -12.984375 C 4.179688 -14.304688 3.765625 -15.757812 3.765625 -17.34375 C 3.765625 -19.8125 4.738281 -21.859375 6.6875 -23.484375 C 8.644531 -25.109375 11.164062 -25.921875 14.25 -25.921875 C 17.101562 -25.921875 19.390625 -25.238281 21.109375 -23.875 C 22.296875 -24.582031 23.445312 -25.109375 24.5625 -25.453125 C 25.6875 -25.804688 26.890625 -25.984375 28.171875 -25.984375 C 28.253906 -25.984375 28.328125 -25.828125 28.390625 -25.515625 C 28.460938 -25.210938 28.5 -24.890625 28.5 -24.546875 C 28.5 -24.015625 28.441406 -23.484375 28.328125 -22.953125 C 28.222656 -22.429688 28.082031 -22.210938 27.90625 -22.296875 C 27.15625 -22.609375 26.4375 -22.847656 25.75 -23.015625 C 25.070312 -23.191406 24.316406 -23.28125 23.484375 -23.28125 C 23.046875 -23.28125 22.519531 -23.238281 21.90625 -23.15625 C 23.394531 -21.53125 24.140625 -19.640625 24.140625 -17.484375 C 24.140625 -15.941406 23.710938 -14.5 22.859375 -13.15625 C 22.003906 -11.820312 20.785156 -10.757812 19.203125 -9.96875 C 17.617188 -9.175781 15.8125 -8.78125 13.78125 -8.78125 C 12.25 -8.78125 10.820312 -9.019531 9.5 -9.5 C 8.625 -8.75 8 -8.046875 7.625 -7.390625 C 7.25 -6.734375 7.0625 -6.007812 7.0625 -5.21875 C 7.0625 -4.25 7.359375 -3.507812 7.953125 -3 C 8.546875 -2.5 9.523438 -2.132812 10.890625 -1.90625 C 12.253906 -1.6875 14.164062 -1.578125 16.625 -1.578125 Z M 12.671875 -24.9375 C 9.453125 -24.9375 7.84375 -22.9375 7.84375 -18.9375 C 7.84375 -16.957031 8.195312 -15.273438 8.90625 -13.890625 C 9.613281 -12.503906 10.515625 -11.46875 11.609375 -10.78125 C 12.710938 -10.101562 13.859375 -9.765625 15.046875 -9.765625 C 16.535156 -9.765625 17.726562 -10.28125 18.625 -11.3125 C 19.53125 -12.34375 19.984375 -13.914062 19.984375 -16.03125 C 19.984375 -18.757812 19.28125 -20.925781 17.875 -22.53125 C 16.46875 -24.132812 14.734375 -24.9375 12.671875 -24.9375 Z M 14.578125 16.5 C 17.609375 16.5 20.09375 15.691406 22.03125 14.078125 C 23.96875 12.472656 24.9375 10.332031 24.9375 7.65625 C 24.9375 5.894531 24.503906 4.609375 23.640625 3.796875 C 22.785156 2.984375 21.65625 2.460938 20.25 2.234375 C 18.84375 2.015625 16.882812 1.90625 14.375 1.90625 C 13.320312 1.90625 12.003906 1.863281 10.421875 1.78125 C 8.972656 2.707031 7.863281 3.726562 7.09375 4.84375 C 6.320312 5.96875 5.9375 7.363281 5.9375 9.03125 C 5.9375 11.320312 6.691406 13.140625 8.203125 14.484375 C 9.722656 15.828125 11.847656 16.5 14.578125 16.5 Z M 14.578125 16.5 "/></g></g></g><g fill="#b61010" fill-opacity="1"><g transform="translate(287.125391, 185.069767)"><g><path d="M 31.46875 -0.796875 C 31.601562 -0.796875 31.671875 -0.660156 31.671875 -0.390625 C 31.671875 -0.128906 31.601562 0 31.46875 0 C 30.457031 0 29.644531 -0.0195312 29.03125 -0.0625 L 25.46875 -0.125 L 21.90625 -0.0625 C 21.289062 -0.0195312 20.472656 0 19.453125 0 C 19.328125 0 19.265625 -0.128906 19.265625 -0.390625 C 19.265625 -0.660156 19.328125 -0.796875 19.453125 -0.796875 C 20.640625 -0.796875 21.519531 -0.914062 22.09375 -1.15625 C 22.664062 -1.394531 23.0625 -1.832031 23.28125 -2.46875 C 23.5 -3.113281 23.609375 -4.070312 23.609375 -5.34375 L 23.609375 -15.828125 C 23.609375 -18.421875 23.113281 -20.34375 22.125 -21.59375 C 21.132812 -22.851562 19.609375 -23.484375 17.546875 -23.484375 C 16.179688 -23.484375 14.796875 -23.117188 13.390625 -22.390625 C 11.984375 -21.671875 10.707031 -20.671875 9.5625 -19.390625 L 9.5625 -5.34375 C 9.5625 -4.070312 9.671875 -3.113281 9.890625 -2.46875 C 10.109375 -1.832031 10.503906 -1.394531 11.078125 -1.15625 C 11.648438 -0.914062 12.53125 -0.796875 13.71875 -0.796875 C 13.851562 -0.796875 13.921875 -0.660156 13.921875 -0.390625 C 13.921875 -0.128906 13.851562 0 13.71875 0 C 12.707031 0 11.894531 -0.0195312 11.28125 -0.0625 L 7.71875 -0.125 L 4.15625 -0.0625 C 3.539062 -0.0195312 2.726562 0 1.71875 0 C 1.582031 0 1.515625 -0.128906 1.515625 -0.390625 C 1.515625 -0.660156 1.582031 -0.796875 1.71875 -0.796875 C 2.90625 -0.796875 3.785156 -0.914062 4.359375 -1.15625 C 4.929688 -1.394531 5.328125 -1.832031 5.546875 -2.46875 C 5.765625 -3.113281 5.875 -4.070312 5.875 -5.34375 L 5.875 -39.453125 C 5.875 -41.035156 5.71875 -42.175781 5.40625 -42.875 C 5.101562 -43.582031 4.554688 -43.9375 3.765625 -43.9375 C 3.097656 -43.9375 2.082031 -43.628906 0.71875 -43.015625 L 0.59375 -43.015625 C 0.457031 -43.015625 0.34375 -43.125 0.25 -43.34375 C 0.164062 -43.5625 0.210938 -43.691406 0.390625 -43.734375 L 8.78125 -47.828125 L 8.96875 -47.828125 C 9.144531 -47.828125 9.285156 -47.769531 9.390625 -47.65625 C 9.503906 -47.550781 9.5625 -47.429688 9.5625 -47.296875 L 9.5625 -20.515625 C 11.238281 -22.453125 12.898438 -23.867188 14.546875 -24.765625 C 16.191406 -25.671875 17.914062 -26.125 19.71875 -26.125 C 22.144531 -26.125 24.015625 -25.441406 25.328125 -24.078125 C 26.648438 -22.710938 27.3125 -20.734375 27.3125 -18.140625 L 27.3125 -5.34375 C 27.3125 -4.070312 27.421875 -3.113281 27.640625 -2.46875 C 27.859375 -1.832031 28.253906 -1.394531 28.828125 -1.15625 C 29.398438 -0.914062 30.28125 -0.796875 31.46875 -0.796875 Z M 31.46875 -0.796875 "/></g></g></g><g fill="#b61010" fill-opacity="1"><g transform="translate(317.930756, 185.069767)"><g><path d="M 20.515625 -3.4375 C 20.691406 -3.4375 20.820312 -3.335938 20.90625 -3.140625 C 21 -2.941406 20.976562 -2.796875 20.84375 -2.703125 C 19.21875 -1.429688 17.753906 -0.53125 16.453125 0 C 15.160156 0.53125 13.8125 0.796875 12.40625 0.796875 C 10.550781 0.796875 9.03125 0.378906 7.84375 -0.453125 C 6.65625 -1.296875 6.0625 -2.6875 6.0625 -4.625 L 6.0625 -20.125 C 6.0625 -21.257812 5.984375 -22.066406 5.828125 -22.546875 C 5.679688 -23.035156 5.382812 -23.359375 4.9375 -23.515625 C 4.5 -23.671875 3.753906 -23.75 2.703125 -23.75 C 2.523438 -23.75 2.4375 -23.890625 2.4375 -24.171875 C 2.4375 -24.460938 2.523438 -24.609375 2.703125 -24.609375 C 4.460938 -24.648438 5.890625 -25.117188 6.984375 -26.015625 C 8.085938 -26.921875 8.726562 -28.125 8.90625 -29.625 C 8.90625 -29.75 9.082031 -29.8125 9.4375 -29.8125 C 9.738281 -29.8125 9.890625 -29.75 9.890625 -29.625 L 9.890625 -24.734375 C 12.085938 -24.773438 15.144531 -24.992188 19.0625 -25.390625 C 19.15625 -25.390625 19.253906 -25.222656 19.359375 -24.890625 C 19.472656 -24.566406 19.53125 -24.207031 19.53125 -23.8125 C 19.53125 -23.457031 19.453125 -23.09375 19.296875 -22.71875 C 19.140625 -22.351562 18.972656 -22.191406 18.796875 -22.234375 C 16.378906 -22.847656 13.410156 -23.195312 9.890625 -23.28125 L 9.890625 -6.859375 C 9.890625 -5.054688 10.335938 -3.710938 11.234375 -2.828125 C 12.140625 -1.953125 13.429688 -1.515625 15.109375 -1.515625 C 17.046875 -1.515625 18.804688 -2.128906 20.390625 -3.359375 Z M 20.515625 -3.4375 "/></g></g></g><g fill="#b61010" fill-opacity="1"><g transform="translate(37.091636, 180.916959)"><g><path d="M 20.9375 -26.25 C 20.09375 -27 19.492188 -27.847656 19.140625 -28.796875 C 18.796875 -29.753906 18.597656 -30.703125 18.546875 -31.640625 C 18.503906 -34.109375 19.179688 -36.273438 20.578125 -38.140625 C 21.984375 -40.015625 23.910156 -41.59375 26.359375 -42.875 C 28.804688 -44.15625 31.628906 -45.109375 34.828125 -45.734375 C 38.023438 -46.367188 41.421875 -46.6875 45.015625 -46.6875 C 48.835938 -46.6875 52.472656 -46.488281 55.921875 -46.09375 C 59.378906 -45.695312 62.53125 -45.226562 65.375 -44.6875 C 68.226562 -44.15625 70.664062 -43.628906 72.6875 -43.109375 C 74.71875 -42.597656 76.222656 -42.207031 77.203125 -41.9375 C 77.722656 -41.789062 78.566406 -41.539062 79.734375 -41.1875 C 80.898438 -40.84375 81.832031 -40.507812 82.53125 -40.1875 C 82.851562 -40.039062 83.203125 -39.863281 83.578125 -39.65625 C 83.953125 -39.445312 84.046875 -39.25 83.859375 -39.0625 C 83.765625 -38.96875 83.539062 -39.015625 83.1875 -39.203125 C 82.84375 -39.390625 82.484375 -39.484375 82.109375 -39.484375 C 80.804688 -39.484375 79.3125 -39.0625 77.625 -38.21875 C 75.945312 -37.375 74.269531 -36.28125 72.59375 -34.9375 C 70.445312 -33.300781 68.285156 -31.421875 66.109375 -29.296875 C 63.941406 -27.171875 62.019531 -25.175781 60.34375 -23.3125 C 60.90625 -22.46875 61.347656 -21.566406 61.671875 -20.609375 C 61.992188 -19.660156 62.15625 -18.601562 62.15625 -17.4375 C 62.15625 -16.875 62.117188 -16.300781 62.046875 -15.71875 C 61.984375 -15.132812 61.832031 -14.515625 61.59375 -13.859375 C 62.945312 -15.347656 64.300781 -16.816406 65.65625 -18.265625 C 67.007812 -19.710938 68.34375 -21.046875 69.65625 -22.265625 C 73.476562 -25.804688 77.328125 -29.035156 81.203125 -31.953125 C 85.078125 -34.867188 88.984375 -37.203125 92.921875 -38.953125 C 96.867188 -40.703125 100.800781 -41.578125 104.71875 -41.578125 C 106.207031 -41.578125 107.695312 -41.34375 109.1875 -40.875 C 110.6875 -40.414062 111.71875 -39.765625 112.28125 -38.921875 C 112.46875 -38.679688 112.570312 -38.429688 112.59375 -38.171875 C 112.613281 -37.921875 112.507812 -37.75 112.28125 -37.65625 C 112.132812 -37.65625 111.804688 -37.890625 111.296875 -38.359375 C 110.503906 -39.054688 109.582031 -39.640625 108.53125 -40.109375 C 107.476562 -40.578125 106.28125 -40.8125 104.9375 -40.8125 C 101.988281 -40.8125 98.953125 -40.125 95.828125 -38.75 C 92.703125 -37.375 89.609375 -35.5625 86.546875 -33.3125 C 83.492188 -31.070312 80.585938 -28.691406 77.828125 -26.171875 C 75.078125 -23.660156 72.609375 -21.238281 70.421875 -18.90625 C 67.148438 -15.5 64.414062 -12.40625 62.21875 -9.625 C 60.03125 -6.84375 58.257812 -4.546875 56.90625 -2.734375 C 56.019531 -1.515625 55.320312 -0.546875 54.8125 0.171875 C 54.300781 0.898438 53.785156 1.285156 53.265625 1.328125 C 52.617188 1.378906 52.304688 1.039062 52.328125 0.3125 C 52.347656 -0.40625 52.546875 -1.160156 52.921875 -1.953125 C 53.429688 -3.023438 54.289062 -4.414062 55.5 -6.125 C 56.71875 -7.832031 58.117188 -9.640625 59.703125 -11.546875 C 60.222656 -12.617188 60.597656 -13.617188 60.828125 -14.546875 C 61.066406 -15.484375 61.1875 -16.375 61.1875 -17.21875 C 61.1875 -19.132812 60.644531 -20.882812 59.5625 -22.46875 C 58.3125 -21.019531 57.007812 -19.515625 55.65625 -17.953125 C 54.300781 -16.390625 52.875 -14.835938 51.375 -13.296875 C 47.414062 -9.191406 43.601562 -5.867188 39.9375 -3.328125 C 36.269531 -0.785156 32.8125 1.148438 29.5625 2.484375 C 26.320312 3.816406 23.375 4.726562 20.71875 5.21875 C 18.0625 5.707031 15.726562 5.953125 13.71875 5.953125 C 11.894531 5.953125 10.082031 5.707031 8.28125 5.21875 C 6.488281 4.726562 4.984375 3.769531 3.765625 2.34375 C 2.554688 0.914062 1.953125 -1.144531 1.953125 -3.84375 C 1.953125 -6.269531 2.675781 -8.847656 4.125 -11.578125 C 5.570312 -14.316406 7.707031 -16.96875 10.53125 -19.53125 C 13.351562 -22.09375 16.820312 -24.332031 20.9375 -26.25 Z M 80.359375 -40.109375 C 78.816406 -40.523438 76.34375 -41.0625 72.9375 -41.71875 C 69.53125 -42.375 65.4375 -42.96875 60.65625 -43.5 C 55.875 -44.039062 50.660156 -44.3125 45.015625 -44.3125 C 41.703125 -44.3125 38.515625 -44.03125 35.453125 -43.46875 C 32.398438 -42.90625 29.671875 -42.078125 27.265625 -40.984375 C 24.859375 -39.890625 22.96875 -38.5625 21.59375 -37 C 20.21875 -35.4375 19.53125 -33.648438 19.53125 -31.640625 C 19.53125 -30.796875 19.71875 -29.929688 20.09375 -29.046875 C 20.46875 -28.160156 21.070312 -27.367188 21.90625 -26.671875 C 25.175781 -28.066406 28.5 -29.078125 31.875 -29.703125 C 35.257812 -30.335938 38.378906 -30.65625 41.234375 -30.65625 C 44.921875 -30.65625 48.269531 -30.222656 51.28125 -29.359375 C 54.289062 -28.492188 56.75 -27.128906 58.65625 -25.265625 C 60.425781 -26.898438 62.300781 -28.554688 64.28125 -30.234375 C 66.269531 -31.921875 68.222656 -33.460938 70.140625 -34.859375 C 72.054688 -36.253906 73.890625 -37.429688 75.640625 -38.390625 C 77.390625 -39.347656 78.960938 -39.921875 80.359375 -40.109375 Z M 57.890625 -24.5625 C 56.023438 -26.34375 53.738281 -27.628906 51.03125 -28.421875 C 48.320312 -29.210938 45.519531 -29.609375 42.625 -29.609375 C 40.101562 -29.609375 37.375 -29.234375 34.4375 -28.484375 C 31.5 -27.742188 28.59375 -26.765625 25.71875 -25.546875 C 22.851562 -24.335938 20.273438 -23.007812 17.984375 -21.5625 C 13.316406 -18.625 9.664062 -15.671875 7.03125 -12.703125 C 4.394531 -9.742188 3.078125 -6.628906 3.078125 -3.359375 C 3.078125 -1.117188 3.601562 0.59375 4.65625 1.78125 C 5.707031 2.96875 7.023438 3.785156 8.609375 4.234375 C 10.191406 4.679688 11.753906 4.90625 13.296875 4.90625 C 15.816406 4.90625 18.628906 4.445312 21.734375 3.53125 C 24.835938 2.625 28.265625 1.015625 32.015625 -1.296875 C 35.773438 -3.609375 39.875 -6.835938 44.3125 -10.984375 C 46.550781 -13.128906 48.753906 -15.332031 50.921875 -17.59375 C 53.097656 -19.863281 55.421875 -22.1875 57.890625 -24.5625 Z M 57.890625 -24.5625 "/></g></g></g></svg>